#!OML:ASF F:\VICON\USERDATA\INSTALL\rory3\rory3.ASF
:FULLY-SPECIFIED
:DEGREES
10
root 0.4186875074286276 17.77973978424136 -21.641216022695843 -1.9265462705268341 4.2240736109636385 0.8577799027160302
lfemur 13.261586725475498 -3.0640719956377236 -24.961400724473357
ltibia 21.980905222071016
lfoot -14.720973275322951 -4.4372431396143215
ltoes -11.528579701215211
rfemur -26.66117123372713 1.881761525973801 21.6492016702862
rtibia 22.206539356946024
rfoot -5.039830866771483 -10.673534704788741
rtoes -7.668573094916722
lowerback 11.214610231020897 -1.679663556594825 -4.680138605817183
upperback -0.15891769523531252 -2.7103499814484717 2.1967966981267226
thorax -6.141960618125251 -1.1514077739766209 5.4050375854759825
lowerneck -15.301672761568327 -2.6324941722234327 -2.276314820413475
upperneck 21.5456900167225 -3.1154862056205177 0.031066817416941284
head 9.339630150685332 -1.6374968743840828 -7.026623318401315e-05
lclavicle -2.0277218290377812e-15 -7.125406982924247e-16
lhumerus -22.07473886407964 -0.33417270682573275 83.04995499506268
lradius 28.151150376879094
lwrist 6.66186282010191
lhand -33.18280926851147 13.674795611517228
lfingers 7.12502
lthumb -6.390724645863502 43.563552222340256
rclavicle -2.0277218290377812e-15 -7.125406982924247e-16
rhumerus -39.79135713116038 -29.26955570019817 -69.23518499188383
rradius 20.214809467840347
rwrist 11.140440492076133
rhand -18.468567920665112 21.994167895993513
rfingers 7.12502
rthumb 7.818104660123341 -7.840814292187868
11
root 0.36868973985222336 17.852474361377617 -20.64399403736891 -2.4785433113839455 3.52093623271339 -0.6785798501528513
lfemur 12.021624192673693 -3.7825325923733515 -23.157436808194046
ltibia 30.25268725344694
lfoot -8.85780031973973 -7.718477294711755
ltoes -19.03549105289316
rfemur -25.56919690568575 1.7863887555867382 23.959923853225778
rtibia 26.114437210880943
rfoot -3.460483776847777 -7.631270011373165
rtoes 0.8875343771860309
lowerback 11.03604853121989 -1.6870535146901076 -3.294483961157675
upperback -0.3820366780489648 -2.502290253238043 2.695301241293769
thorax -6.337973307756252 -1.074744179804082 5.120696156268054
lowerneck -14.530274669172886 -2.44216648226116 -2.4627527752278926
upperneck 21.951501426474074 -2.813052760693422 -0.044619155286025114
head 9.328659146792768 -1.5240403681079346 0.04986176126723035
lclavicle -2.0277217865805055e-15 -7.12540696006453e-16
lhumerus -24.225382952959546 1.6971914771211587 83.56846479651658
lradius 28.324797588390165
lwrist 5.676833605412052
lhand -33.01117799494734 13.44778046350094
lfingers 7.12502
lthumb -6.2249812987350115 43.34131219172164
rclavicle -2.0277217865805055e-15 -7.12540696006453e-16
rhumerus -41.07181185517251 -32.12115447141338 -66.28783174793206
rradius 18.14967988285083
rwrist 14.728045695761846
rhand -19.085489109452567 20.95623745190636
rfingers 7.12502
rthumb 7.222588007635258 -8.899582561249307
12
root 0.3121997245013229 17.988726463193053 -19.626950066051506 -3.086811355296449 2.5925497415281926 -1.278150877093594
lfemur 7.805450300206786 -1.6143284536626803 -21.11660223126639
ltibia 40.71100172200146
lfoot 6.1650219899994525 -14.050909678286317
ltoes -6.858352486575757
rfemur -22.78003034593469 1.3464146495888025 25.522361641256985
rtibia 28.7438988492257
rfoot -5.661878356654026 -7.0592100476656405
rtoes 4.923915843715713
lowerback 10.576062389054965 -1.7401916210388986 -3.2435427893285667
upperback -0.696302597514755 -2.52646495163975 3.175302925724008
thorax -6.3853144391899646 -1.0738447805949431 5.600736726630944
lowerneck -12.639835367460368 -2.1805017599118437 -3.1234906793607395
upperneck 21.805532744245415 -2.3251218417282717 -0.2249903260552777
head 8.908325049958714 -1.372679412407867 0.17826638259747213
lclavicle -2.02772185430787e-15 -7.125406691467395e-16
lhumerus -28.04186357895143 4.111103036500878 84.04526673590154
lradius 29.318124281022726
lwrist 6.4038913744610575
lhand -32.23807626319592 21.656593006492717
lfingers 7.12502
lthumb -5.478597972165067 51.56752529594051
rclavicle -2.02772185430787e-15 -7.125406691467395e-16
rhumerus -41.587095152426684 -30.115462801843194 -66.37650455189156
rradius 18.345958274239777
rwrist 14.543061981998166
rhand -17.375595788855676 22.238036379132303
rfingers 7.12502
rthumb 8.872904198658105 -7.555938727839398
13
root 0.2515443709630905 18.079394226465393 -18.68329739553141 -3.7214177683207774 2.2697682894557727 -4.446145004796802
lfemur 1.5758771120928934 -1.006884571295523 -16.19336979747738
ltibia 52.10901509691415
lfoot 21.891120362971378 -19.402304577366394
ltoes -5.4999515331103535
rfemur -18.052943625989126 1.4599560110456338 29.722364424639096
rtibia 27.315593399475723
rfoot -6.338352158462851 -7.326157913043369
rtoes 4.972601954626554
lowerback 10.810449598477248 -1.0136648469605076 0.6725683529884429
upperback 0.25187376192971966 -1.0708960351778882 3.2569831260606477
thorax -5.756288103583245 -0.4994446547141715 3.2201090415194207
lowerneck -16.377319937955864 -3.0557141262363503 -1.8997403878568475
upperneck 22.638037610065084 -3.719659917347224 -0.22993200844995876
head 9.933119749886592 -1.9125235973662789 -0.2590199760971714
lclavicle -2.02772189037421e-15 -7.12540632000256e-16
lhumerus -27.385025153691675 1.7711834817441363 84.78147269490928
lradius 29.150871442886903
lwrist 6.824774351299278
lhand -31.689079550037537 21.838205303307117
lfingers 7.12502
lthumb -4.94854393589932 51.761469258077305
rclavicle -2.02772189037421e-15 -7.12540632000256e-16
rhumerus -39.5740805179846 -29.864663558992504 -69.58687175318562
rradius 19.84178036193176
rwrist 11.352941445444767
rhand -16.252268793408717 24.231647043210128
rfingers 7.12502
rthumb 9.956801208982172 -5.514303145262315
14
root 0.21632552748457168 18.115561151990086 -17.83465798096196 -3.9419190992287274 1.5003039211408913 -5.883342245529711
lfemur -5.827144022588069 -0.12237821001885063 -13.693910341152222
ltibia 62.75163030042159
lfoot 25.387967141117763 -21.06331928694205
ltoes 4.317090308066581
rfemur -14.486167719156931 1.9016877646680965 31.84138570309568
rtibia 26.73725086438644
rfoot -7.484806015612264 -7.373117577326653
rtoes 8.70025045002326
lowerback 11.417239805864217 -0.6813036732491706 2.0280814567682017
upperback 0.05493703010203521 -0.4064527671040155 3.541698357904635
thorax -6.355688062427097 -0.20447638033010507 2.6713013291635113
lowerneck -15.415398896461092 -3.153387874431231 -1.9767667421228905
upperneck 21.833409807073927 -3.8719464329459763 -0.1470829271453451
head 9.461542780128667 -1.9840868153398248 -0.21173642984789992
lclavicle -2.0277218247584415e-15 -7.12540675433068e-16
lhumerus -29.011677473565868 3.604890865514216 84.40082739575853
lradius 28.58426958054178
lwrist 6.94056977241986
lhand -29.47807109596957 21.78513669392566
lfingers 7.12502
lthumb -2.813377483436369 51.74515994714818
rclavicle -2.0277218247584415e-15 -7.12540675433068e-16
rhumerus -37.56206597405061 -26.77254276475101 -71.99998222869165
rradius 20.664447413710985
rwrist 9.486741758385186
rhand -13.945199625180784 27.52089314728657
rfingers 7.12502
rthumb 12.181857009976676 -2.1079035377090296
